<?xml version="1.0" encoding="UTF-8"?>
<svg width="100%" height="100%" viewBox="0 0 1280 720" version="1.1" xmlns="http://www.w3.org/2000/svg" xmlns:xlink="http://www.w3.org/1999/xlink">
    <title>BOARD4</title>
    <g id="BOARD4" stroke="none" stroke-width="1" fill="none" fill-rule="evenodd">
        <g id="SCENE">
            <g id="BACKGROUND">
                <rect id="Rectangle-Copy-2" stroke="#FFFFFF" transform="translate(450.000000, 360.000000) scale(-1, 1) translate(-450.000000, -360.000000) " x="0.5" y="0.5" width="899" height="719"></rect>
                <rect id="Rectangle-Copy-3" fill="#C6C6C6" transform="translate(450.000000, 600.000000) scale(-1, 1) translate(-450.000000, -600.000000) " x="0" y="480" width="900" height="240"></rect>
                <polygon id="Path-17" fill="#EFEFEF" transform="translate(320.000000, 589.000000) scale(-1, 1) translate(-320.000000, -589.000000) " points="61 634 579 634 515 544 81 544"></polygon>
                <polygon id="Rectangle-Copy-6" fill="#EFEFEF" transform="translate(455.000000, 595.000000) scale(-1, 1) translate(-455.000000, -595.000000) " points="200 500 720 500 830 690 80 690"></polygon>
                <rect id="Rectangle-Copy-4" fill="#44A4E7" transform="translate(450.000000, 240.000000) scale(-1, -1) translate(-450.000000, -240.000000) " x="0" y="0" width="900" height="480"></rect>
            </g>
            <polygon id="Path-16" fill="#2E7CB2" points="170 480 170 0 0 0 0 720"></polygon>
            <polygon id="Path-16-Copy" fill="#2E7CB2" transform="translate(815.000000, 360.000000) scale(-1, 1) translate(-815.000000, -360.000000) " points="900 480 900 0 730 0 730 720"></polygon>
            <g id="FOREGROUND" transform="translate(61.000000, 284.000000)" fill="#000000">
                <path d="M32,20.0331126 C41.7866912,13.9063036 54.687132,16.8732244 60.813941,26.6599156 C62.8958993,29.9855429 64,33.8299216 64,37.7534846 L64,259.933775 L64,259.933775 L0,350 L0,77.8197098 C-2.87651386e-15,54.3311916 12.0910409,32.4968132 32,20.0331126 Z" id="Rectangle-Copy"></path>
            </g>
        </g>
    </g>
</svg>