<?xml version="1.0" encoding="UTF-8"?>
<svg width="100%" height="100%" viewBox="0 0 1280 720" version="1.1" xmlns="http://www.w3.org/2000/svg" xmlns:xlink="http://www.w3.org/1999/xlink">
    <title>BOARD1</title>
    <g id="BOARD1" stroke="none" stroke-width="1" fill="none" fill-rule="evenodd">
        <g id="SCENE">
            <g id="BACKGROUND">
                <rect id="Rectangle-Copy-2" stroke="#FFFFFF" transform="translate(450.000000, 360.000000) scale(-1, 1) translate(-450.000000, -360.000000) " x="0.5" y="0.5" width="899" height="719"></rect>
                <rect id="Rectangle-Copy-3" fill="#C6C6C6" transform="translate(450.000000, 600.000000) scale(-1, 1) translate(-450.000000, -600.000000) " x="0" y="480" width="900" height="240"></rect>
                <rect id="Rectangle-Copy-4" fill="#656565" transform="translate(450.000000, 240.000000) scale(-1, -1) translate(-450.000000, -240.000000) " x="0" y="0" width="900" height="480"></rect>
                <polygon id="Path-8" fill="#EFEFEF" points="321 480 263 720 638 720 579 480"></polygon>
            </g>
            <g id="FOREGROUND" transform="translate(321.000000, 176.000000)" fill="#000000">
                <path d="M90,0 L168,0 C217.705627,-9.13077564e-15 258,40.2943725 258,90 L258,304 L258,304 L0,304 L0,90 C-6.08718376e-15,40.2943725 40.2943725,9.13077564e-15 90,0 Z" id="door_01"></path>
            </g>
        </g>
    </g>
</svg>