<?xml version="1.0" encoding="UTF-8"?>
<svg width="1280px" height="720px" viewBox="0 0 1280 720" version="1.1" xmlns="http://www.w3.org/2000/svg" xmlns:xlink="http://www.w3.org/1999/xlink">
    <title>BOARD2</title>
    <g id="BOARD2" stroke="none" stroke-width="1" fill="none" fill-rule="evenodd">
        <g id="SCENE">
            <g id="BACKGROUND">
                <rect id="Rectangle-Copy-2" stroke="#FFFFFF" transform="translate(450.000000, 360.000000) scale(-1, 1) translate(-450.000000, -360.000000) " x="0.5" y="0.5" width="899" height="719"></rect>
                <rect id="Rectangle-Copy-3" fill="#C6C6C6" transform="translate(450.000000, 600.000000) scale(-1, 1) translate(-450.000000, -600.000000) " x="0" y="480" width="900" height="240"></rect>
                <polygon id="Path-8" fill="#EFEFEF" points="355 480 273 720 628 720 545 480"></polygon>
                <polygon id="Path-17" fill="#EFEFEF" points="61 634 839 634 775 544 125 544"></polygon>
                <rect id="Rectangle-Copy-4" fill="#E74444" transform="translate(450.000000, 240.000000) scale(-1, -1) translate(-450.000000, -240.000000) " x="0" y="0" width="900" height="480"></rect>
                <polygon id="Path-16" fill="#C92F2F" points="170 480 170 0 0 0 0 720"></polygon>
                <polygon id="Path-16-Copy" fill="#C92F2F" transform="translate(815.000000, 360.000000) scale(-1, 1) translate(-815.000000, -360.000000) " points="900 480 900 0 730 0 730 720"></polygon>
                <path d="M445,246 L455,246 C504.705627,246 545,286.294373 545,336 L545,480 L545,480 L355,480 L355,336 C355,286.294373 395.294373,246 445,246 Z" id="Rectangle" fill="#000000"></path>
                <path d="M93,304.033113 C102.786691,297.906304 115.687132,300.873224 121.813941,310.659916 C123.895899,313.985543 125,317.829922 125,321.753485 L125,543.933775 L125,543.933775 L61,634 L61,361.81971 C61,338.331192 73.0910409,316.496813 93,304.033113 Z" id="door_01" fill="#000000"></path>
                <path d="M807,304.033113 C816.786691,297.906304 829.687132,300.873224 835.813941,310.659916 C837.895899,313.985543 839,317.829922 839,321.753485 L839,543.933775 L839,543.933775 L775,634 L775,361.81971 C775,338.331192 787.091041,316.496813 807,304.033113 Z" id="Rectangle-Copy-5" fill="#000000" transform="translate(807.000000, 459.000000) scale(-1, 1) translate(-807.000000, -459.000000) "></path>
            </g>
            <g id="FOREGROUND" transform="translate(775.000000, 284.000000)" fill="#279F68">
                <path d="M32,20.0331126 C41.7866912,13.9063036 54.687132,16.8732244 60.813941,26.6599156 C62.8958993,29.9855429 64,33.8299216 64,37.7534846 L64,259.933775 L64,259.933775 L0,350 L0,77.8197098 C-2.87651386e-15,54.3311916 12.0910409,32.4968132 32,20.0331126 Z" id="door_01" transform="translate(32.000000, 175.000000) scale(-1, 1) translate(-32.000000, -175.000000) "></path>
            </g>
        </g>
    </g>
</svg>