<?xml version="1.0" encoding="UTF-8"?>
<svg width="1280px" height="720px" viewBox="0 0 1280 720" version="1.1" xmlns="http://www.w3.org/2000/svg" xmlns:xlink="http://www.w3.org/1999/xlink">
    <title>Ramblegate</title>
    <g id="Ramblegate" stroke="none" stroke-width="1" fill="none" fill-rule="evenodd">
        <rect id="Rectangle" stroke="#979797" fill="#D8D8D8" x="0.5" y="0.5" width="1279" height="719"></rect>
        <g id="A" transform="translate(1135.000000, 314.000000)" fill="#000000" fill-rule="nonzero">
            <path d="M0,45.9 C0,21.1 20.2,0.9 45,0.9 C69.8,0.9 90,21.1 90,45.9 C90,70.7 69.8,90.9 45,90.9 C20.2,90.9 0,70.7 0,45.9 Z M86.2,45.9 C86.2,23.2 67.7,4.7 45,4.7 C22.3,4.7 3.8,23.2 3.8,45.9 C3.8,68.6 22.3,87.1 45,87.1 C67.7,87.1 86.2,68.6 86.2,45.9 Z" id="Shape"></path>
            <path d="M36.2,62 L38.456,54.704 L50.84,54.704 L53.144,62 L60.392,62 L48.296,27.68 L41.096,27.68 L29.144,62 L36.2,62 Z M49.16,49.376 L40.088,49.376 L43.16,39.488 C43.32,39.04 43.472,38.512 43.616,37.904 C43.76,37.296 43.912,36.72 44.072,36.176 C44.232,35.536 44.408,34.88 44.6,34.208 L44.6,34.208 L44.696,34.208 C44.856,34.88 45.016,35.536 45.176,36.176 C45.336,36.72 45.488,37.296 45.632,37.904 C45.776,38.512 45.928,39.04 46.088,39.488 L46.088,39.488 L49.16,49.376 Z"></path>
        </g>
        <g id="B" transform="translate(1015.000000, 314.000000)" fill="#000000" fill-rule="nonzero">
            <path d="M0,45.9 C0,21.1 20.2,0.9 45,0.9 C69.8,0.9 90,21.1 90,45.9 C90,70.7 69.8,90.9 45,90.9 C20.2,90.9 0,70.7 0,45.9 Z M86.2,45.9 C86.2,23.2 67.7,4.7 45,4.7 C22.3,4.7 3.8,23.2 3.8,45.9 C3.8,68.6 22.3,87.1 45,87.1 C67.7,87.1 86.2,68.6 86.2,45.9 Z" id="Shape"></path>
            <path d="M47.384,62 C49.208,62 50.856,61.76 52.328,61.28 C53.8,60.8 55.032,60.128 56.024,59.264 C57.048,58.4 57.808,57.4 58.304,56.264 C58.8,55.128 59.048,53.744 59.048,52.112 C59.048,50 58.464,48.192 57.296,46.688 C56.128,45.184 54.584,44.16 52.664,43.616 L52.664,43.616 L52.664,43.472 C54.296,42.928 55.6,42.088 56.576,40.952 C57.552,39.816 58.04,38.368 58.04,36.608 C58.04,33.952 57.128,31.808 55.304,30.176 C54.408,29.376 53.264,28.76 51.872,28.328 C50.48,27.896 48.856,27.68 47,27.68 L47,27.68 L31.64,27.68 L31.64,62 L47.384,62 Z M46.136,41.504 L38.6,41.504 L38.6,33.344 L46.28,33.344 C47.816,33.344 49.024,33.696 49.904,34.4 C50.784,35.104 51.224,36.096 51.224,37.376 C51.224,38.72 50.76,39.744 49.832,40.448 C48.904,41.152 47.672,41.504 46.136,41.504 L46.136,41.504 Z M46.616,56.24 L38.6,56.24 L38.6,46.64 L46.424,46.64 C48.024,46.64 49.352,47.056 50.408,47.888 C51.464,48.72 51.992,49.952 51.992,51.584 C51.992,52.992 51.52,54.12 50.576,54.968 C49.632,55.816 48.312,56.24 46.616,56.24 L46.616,56.24 Z"></path>
        </g>
        <g id="RIGHT2" transform="translate(895.000000, 314.000000)" fill="#000000" fill-rule="nonzero">
            <path d="M69.7,45.9 L45,68.6 L45,54.6 L45,50.6 L41,50.6 L19,50.6 L19,41.2 L41,41.2 L45,41.2 L45,37.2 L45,23.2 L69.7,45.9 M75,45.9 C75,45.5 74.8,45.2 74.5,44.9 L43.3,16.3 C42.4,15.5 41,16.1 41,17.3 L41,37.2 L16.9,37.2 C15.8,37.2 15,38.1 15,39.1 L15,52.6 C15,53.7 15.9,54.5 16.9,54.5 L41,54.5 L41,74.4 C41,75.6 42.4,76.2 43.3,75.4 L74.5,46.8 C74.9,46.6 75,46.3 75,45.9 L75,45.9 Z" id="Shape"></path>
            <path d="M0,45.9 C0,21.1 20.2,0.9 45,0.9 C69.8,0.9 90,21.1 90,45.9 C90,70.7 69.8,90.9 45,90.9 C20.2,90.9 0,70.7 0,45.9 Z M86.2,45.9 C86.2,23.2 67.7,4.7 45,4.7 C22.3,4.7 3.8,23.2 3.8,45.9 C3.8,68.6 22.3,87.1 45,87.1 C67.7,87.1 86.2,68.6 86.2,45.9 Z" id="Shape"></path>
        </g>
        <g id="LEFT2" transform="translate(775.000000, 314.000000)" fill="#000000" fill-rule="nonzero">
            <path d="M20.3,45.9 L45,23.3 L45,37.3 L45,41.3 L49,41.3 L71,41.3 L71,50.7 L49,50.7 L45,50.7 L45,54.7 L45,68.7 L20.3,45.9 M15,45.9 C15,46.3 15.2,46.6 15.5,46.9 L46.7,75.5 C47.6,76.3 49,75.7 49,74.5 L49,54.7 L73.1,54.7 C74.2,54.7 75,53.8 75,52.8 L75,39.2 C75,38.1 74.1,37.3 73.1,37.3 L49,37.3 L49,17.3 C49,16.1 47.6,15.5 46.7,16.3 L15.4,44.9 C15.1,45.2 15,45.6 15,45.9 L15,45.9 Z" id="Shape"></path>
            <path d="M90,45.9 C90,70.7 69.8,90.9 45,90.9 C20.2,90.9 0,70.8 0,45.9 C0,21 20.2,0.9 45,0.9 C69.8,0.9 90,21.1 90,45.9 Z M3.8,45.9 C3.8,68.6 22.3,87.1 45,87.1 C67.7,87.1 86.2,68.6 86.2,45.9 C86.2,23.2 67.7,4.8 45,4.8 C22.3,4.8 3.8,23.2 3.8,45.9 Z" id="Shape"></path>
        </g>
        <g id="RIGHT2" transform="translate(655.000000, 314.000000)" fill="#000000" fill-rule="nonzero">
            <path d="M69.7,45.9 L45,68.6 L45,54.6 L45,50.6 L41,50.6 L19,50.6 L19,41.2 L41,41.2 L45,41.2 L45,37.2 L45,23.2 L69.7,45.9 M75,45.9 C75,45.5 74.8,45.2 74.5,44.9 L43.3,16.3 C42.4,15.5 41,16.1 41,17.3 L41,37.2 L16.9,37.2 C15.8,37.2 15,38.1 15,39.1 L15,52.6 C15,53.7 15.9,54.5 16.9,54.5 L41,54.5 L41,74.4 C41,75.6 42.4,76.2 43.3,75.4 L74.5,46.8 C74.9,46.6 75,46.3 75,45.9 L75,45.9 Z" id="Shape"></path>
            <path d="M0,45.9 C0,21.1 20.2,0.9 45,0.9 C69.8,0.9 90,21.1 90,45.9 C90,70.7 69.8,90.9 45,90.9 C20.2,90.9 0,70.7 0,45.9 Z M86.2,45.9 C86.2,23.2 67.7,4.7 45,4.7 C22.3,4.7 3.8,23.2 3.8,45.9 C3.8,68.6 22.3,87.1 45,87.1 C67.7,87.1 86.2,68.6 86.2,45.9 Z" id="Shape"></path>
        </g>
        <g id="LEFT1" transform="translate(535.000000, 314.000000)" fill="#000000" fill-rule="nonzero">
            <path d="M20.3,45.9 L45,23.3 L45,37.3 L45,41.3 L49,41.3 L71,41.3 L71,50.7 L49,50.7 L45,50.7 L45,54.7 L45,68.7 L20.3,45.9 M15,45.9 C15,46.3 15.2,46.6 15.5,46.9 L46.7,75.5 C47.6,76.3 49,75.7 49,74.5 L49,54.7 L73.1,54.7 C74.2,54.7 75,53.8 75,52.8 L75,39.2 C75,38.1 74.1,37.3 73.1,37.3 L49,37.3 L49,17.3 C49,16.1 47.6,15.5 46.7,16.3 L15.4,44.9 C15.1,45.2 15,45.6 15,45.9 L15,45.9 Z" id="Shape"></path>
            <path d="M90,45.9 C90,70.7 69.8,90.9 45,90.9 C20.2,90.9 0,70.8 0,45.9 C0,21 20.2,0.9 45,0.9 C69.8,0.9 90,21.1 90,45.9 Z M3.8,45.9 C3.8,68.6 22.3,87.1 45,87.1 C67.7,87.1 86.2,68.6 86.2,45.9 C86.2,23.2 67.7,4.8 45,4.8 C22.3,4.8 3.8,23.2 3.8,45.9 Z" id="Shape"></path>
        </g>
        <g id="DOWN2" transform="translate(415.000000, 314.000000)" fill="#000000" fill-rule="nonzero">
            <path d="M45,69.8 L22.3,45.1 L36.3,45.1 L40.3,45.1 L40.3,41.1 L40.3,19.1 L49.7,19.1 L49.7,41.1 L49.7,45.1 L53.7,45.1 L67.7,45.1 L45,69.8 M45,75.1 C45.4,75.1 45.7,74.9 46,74.6 L74.6,43.4 C75.4,42.5 74.8,41.1 73.6,41.1 L53.7,41.1 L53.7,17 C53.7,15.9 52.8,15.1 51.8,15.1 L38.2,15.1 C37.1,15.1 36.3,16 36.3,17 L36.3,41.1 L16.4,41.1 C15.2,41.1 14.6,42.5 15.4,43.4 L44,74.6 C44.3,74.9 44.6,75.1 45,75.1 L45,75.1 Z" id="Shape"></path>
            <path d="M45,0.1 C69.8,0.1 90,20.3 90,45.1 C90,69.9 69.8,90.1 45,90.1 C20.2,90.1 0,69.9 0,45.1 C0,20.3 20.2,0.1 45,0.1 Z M45,86.2 C67.7,86.2 86.2,67.7 86.2,45 C86.2,22.3 67.7,3.9 45,3.9 C22.3,3.9 3.8,22.4 3.8,45.1 C3.8,67.8 22.3,86.2 45,86.2 Z" id="Shape"></path>
        </g>
        <g id="DOWN1" transform="translate(295.000000, 314.000000)" fill="#000000" fill-rule="nonzero">
            <path d="M45,69.8 L22.3,45.1 L36.3,45.1 L40.3,45.1 L40.3,41.1 L40.3,19.1 L49.7,19.1 L49.7,41.1 L49.7,45.1 L53.7,45.1 L67.7,45.1 L45,69.8 M45,75.1 C45.4,75.1 45.7,74.9 46,74.6 L74.6,43.4 C75.4,42.5 74.8,41.1 73.6,41.1 L53.7,41.1 L53.7,17 C53.7,15.9 52.8,15.1 51.8,15.1 L38.2,15.1 C37.1,15.1 36.3,16 36.3,17 L36.3,41.1 L16.4,41.1 C15.2,41.1 14.6,42.5 15.4,43.4 L44,74.6 C44.3,74.9 44.6,75.1 45,75.1 L45,75.1 Z" id="Shape"></path>
            <path d="M45,0.1 C69.8,0.1 90,20.3 90,45.1 C90,69.9 69.8,90.1 45,90.1 C20.2,90.1 0,69.9 0,45.1 C0,20.3 20.2,0.1 45,0.1 Z M45,86.2 C67.7,86.2 86.2,67.7 86.2,45 C86.2,22.3 67.7,3.9 45,3.9 C22.3,3.9 3.8,22.4 3.8,45.1 C3.8,67.8 22.3,86.2 45,86.2 Z" id="Shape"></path>
        </g>
        <g id="UP2" transform="translate(175.000000, 314.000000)" fill="#000000" fill-rule="nonzero">
            <path d="M45,20.2 L67.7,45 L53.7,45 L49.7,45 L49.7,49 L49.7,71 L40.3,71 L40.3,49 L40.3,45 L36.3,45 L22.3,45 L45,20.2 M45,15 C44.6,15 44.3,15.2 44,15.5 L15.4,46.6 C14.6,47.5 15.2,48.9 16.4,48.9 L36.3,48.9 L36.3,73 C36.3,74.1 37.2,74.9 38.2,74.9 L51.7,74.9 C52.8,74.9 53.6,74 53.6,73 L53.6,49 L73.5,49 C74.7,49 75.3,47.6 74.5,46.7 L46,15.4 C45.7,15.1 45.4,15 45,15 L45,15 Z" id="Shape"></path>
            <path d="M45,90 C20.2,90 0,69.8 0,45 C0,20.2 20.2,0 45,0 C69.8,0 90,20.2 90,45 C90,69.8 69.8,90 45,90 Z M45,3.8 C22.3,3.8 3.8,22.3 3.8,45 C3.8,67.7 22.3,86.2 45,86.2 C67.7,86.2 86.2,67.7 86.2,45 C86.2,22.3 67.7,3.8 45,3.8 Z" id="Shape"></path>
        </g>
        <g id="UP1" transform="translate(55.000000, 314.000000)" fill="#000000" fill-rule="nonzero">
            <path d="M45,20.2 L67.7,45 L53.7,45 L49.7,45 L49.7,49 L49.7,71 L40.3,71 L40.3,49 L40.3,45 L36.3,45 L22.3,45 L45,20.2 M45,15 C44.6,15 44.3,15.2 44,15.5 L15.4,46.6 C14.6,47.5 15.2,48.9 16.4,48.9 L36.3,48.9 L36.3,73 C36.3,74.1 37.2,74.9 38.2,74.9 L51.7,74.9 C52.8,74.9 53.6,74 53.6,73 L53.6,49 L73.5,49 C74.7,49 75.3,47.6 74.5,46.7 L46,15.4 C45.7,15.1 45.4,15 45,15 L45,15 Z" id="Shape"></path>
            <path d="M45,90 C20.2,90 0,69.8 0,45 C0,20.2 20.2,0 45,0 C69.8,0 90,20.2 90,45 C90,69.8 69.8,90 45,90 Z M45,3.8 C22.3,3.8 3.8,22.3 3.8,45 C3.8,67.7 22.3,86.2 45,86.2 C67.7,86.2 86.2,67.7 86.2,45 C86.2,22.3 67.7,3.8 45,3.8 Z" id="Shape"></path>
        </g>
    </g>
</svg>