<svg id="Layer_1" data-name="Layer 1" xmlns="http://www.w3.org/2000/svg" viewBox="0 0 1280 720"><defs><style>.cls-1,.cls-2,.cls-3{isolation:isolate;fill:#231f20;font-family:PressStart2P-Regular, "Press Start 2P";}.cls-1{font-size:38.56px;letter-spacing:0.21em;}.cls-2{font-size:28.46px;letter-spacing:0.21em;}.cls-3{font-size:31.21px;letter-spacing:0.21em;}.cls-4{fill:#010101;}</style></defs><g id="Layer_2" data-name="Layer 2"><text class="cls-1" transform="translate(126 144) scale(0.96 1)">RAMBLEGATE IS A FUN</text><text class="cls-1" transform="translate(126 190.27) scale(0.96 1)">EXPERIMENT IN SVG</text><text class="cls-1" transform="translate(126 236.54) scale(0.96 1)">AND STORYTELLING.</text><text class="cls-1" transform="translate(126 282.81) scale(0.96 1)">FEEL FREE TO TAKE</text><text class="cls-1" transform="translate(126 329.08) scale(0.96 1)">THE CODE AND REMIX</text><text class="cls-1" transform="translate(126 375.35) scale(0.96 1)">IT FOR YOURSELF!</text><text class="cls-2" transform="translate(126 455.77) scale(0.96 1)">GITHUB.COM/RMZI/RAMBLEGATE</text><text class="cls-1" transform="translate(126 548.31) scale(0.96 1)">GAME CONCEPT:</text><text class="cls-3" transform="translate(126 585.77) scale(0.96 1)">@RMZI, @DESIGNERGEEZUS</text><path class="cls-4" d="M1098,567a57.78,57.78,0,0,0-16.61,2.65,176.86,176.86,0,0,0-46,22.14,14.73,14.73,0,0,1-16.06.3,42,42,0,0,0-57.88,13.34h0v.05c-.46.74-.9,1.5-1.32,2.27a30.29,30.29,0,0,0-9,4.81h-1.22a208.33,208.33,0,0,0-40.24,5.29,13,13,0,0,0-9.54,13h0A21,21,0,0,0,925.44,644a85.46,85.46,0,0,0,11.29-2.59,55.2,55.2,0,0,0,30.32-6.67,85.16,85.16,0,0,0,42.88,13.07,31.68,31.68,0,0,0-5.36,4,4.67,4.67,0,0,0-.25,6.6h0a4.43,4.43,0,0,0,1.47,1.06l13.26,6.15a4.67,4.67,0,0,0,5.12-.81,33,33,0,0,1,12.65-7.32,9.48,9.48,0,0,0,4-2.45,37.68,37.68,0,0,0,6-8.08,119.14,119.14,0,0,0,66.52-16.69l.49.74a4.24,4.24,0,0,1-1.17,5.87h0a53.84,53.84,0,0,1-10.22,5.3,4.66,4.66,0,0,0-.26,8.59l16.79,7.69a4.67,4.67,0,0,0,5.8-1.62l4.27-6.26a6.65,6.65,0,0,1,4.68-2.88,27.87,27.87,0,0,0,12.73-4.9,9.52,9.52,0,0,0,3.16-11.7,300.86,300.86,0,0,0,65.86,4.14,3.87,3.87,0,0,0,3.69-4,4,4,0,0,0-.69-2,21.57,21.57,0,0,0-7.38-6.54,9,9,0,0,0-2.29-.89,109.88,109.88,0,0,1-34.18-14.59q-21.58-15.59-43.75-30.35a58,58,0,0,0-32.91-9.73Zm.13,2.86a55.15,55.15,0,0,1,31.28,9.25q22.15,14.75,43.73,30.33a112.62,112.62,0,0,0,35.13,15,6.75,6.75,0,0,1,1.62.61,18.59,18.59,0,0,1,6.36,5.66,1,1,0,0,1-.23,1.39h0a1.05,1.05,0,0,1-.54.18,297.5,297.5,0,0,1-68-4.59,26.24,26.24,0,0,1-5-11.82,1.43,1.43,0,1,0-2.83.43h0a29.2,29.2,0,0,0,6.5,14.35,6.66,6.66,0,0,1-.83,9.37h0a3.39,3.39,0,0,1-.42.33,25.05,25.05,0,0,1-11.42,4.42,9.54,9.54,0,0,0-6.69,4.09l-4.29,6.27a1.8,1.8,0,0,1-2.23.63l-16.79-7.7a1.79,1.79,0,0,1-.94-2.35h0a1.78,1.78,0,0,1,.94-1,57.31,57.31,0,0,0,10.77-5.59,7.1,7.1,0,0,0,2-9.83h0a39.2,39.2,0,0,1-5.81-14,1.43,1.43,0,0,0-2.8.57,42.29,42.29,0,0,0,4.3,11.78A116.27,116.27,0,0,1,1048.27,644a38.18,38.18,0,0,0,3.38-15.39,1.43,1.43,0,0,0-2.85,0,35.4,35.4,0,0,1-10,24.31,6.77,6.77,0,0,1-2.82,1.71,35.88,35.88,0,0,0-13.73,8,1.82,1.82,0,0,1-2,.31L1007,656.83a1.81,1.81,0,0,1-.86-2.41,2.1,2.1,0,0,1,.4-.54,29,29,0,0,1,10.6-6.25,9.52,9.52,0,0,0,6.46-7.83,12.3,12.3,0,0,1,3.5-7.11,1.44,1.44,0,0,0,0-2,1.42,1.42,0,0,0-2,0,15.05,15.05,0,0,0-4.31,8.77,6.69,6.69,0,0,1-4.35,5.43,82.44,82.44,0,0,1-46.55-11.8c.67-.43,1.33-.87,2-1.33a9.5,9.5,0,0,0,3.92-9.83,70.28,70.28,0,0,0-2.43-8.65,9.52,9.52,0,0,0-9.48-6.34,39.16,39.16,0,0,1,53.91-12.37h.09a17.63,17.63,0,0,0,19.15-.33,173.62,173.62,0,0,1,45.31-21.8,54.89,54.89,0,0,1,15.78-2.51ZM964,609.74a6.68,6.68,0,0,1,6.64,4.44,66.44,66.44,0,0,1,2.31,8.31,6.5,6.5,0,0,1,0,3.22,13.18,13.18,0,0,1-11.24-.63,9.48,9.48,0,0,0-1.37-6.15h-.1a15.15,15.15,0,0,0-5.49-5.21l-.27-.14A27.14,27.14,0,0,1,962.7,610a6.52,6.52,0,0,1,1.31-.22Zm-14.12,5.64a6.74,6.74,0,0,1,3.46.83,12.45,12.45,0,0,1,4.47,4.24,6.66,6.66,0,0,1-2.09,9.18h0a82.8,82.8,0,0,1-30.85,11.5,18.15,18.15,0,0,1-22-10.88h0a10.16,10.16,0,0,1,7.4-9.68,205.23,205.23,0,0,1,39.64-5.2Zm11,12.51a16.09,16.09,0,0,0,9.39,1.46,52.43,52.43,0,0,1-25.37,9.07,85,85,0,0,0,12.33-6.35,9.53,9.53,0,0,0,3.64-4.18Z"/><path class="cls-4" d="M919.88,632.85a1.47,1.47,0,0,0-2.94-.13h0a.29.29,0,0,0,0,.13,1.47,1.47,0,0,0,2.94.13Z"/><path class="cls-4" d="M913.44,625.35a1.5,1.5,0,1,0-3,0h0a1.5,1.5,0,0,0,3,0Z"/><path class="cls-4" d="M995.26,605a3,3,0,0,0-6-.06h0V605a3,3,0,0,0,6,.07Z"/></g></svg>