<?xml version="1.0" encoding="UTF-8"?>
<svg width="1280px" height="720px" viewBox="0 0 1280 720" version="1.1" xmlns="http://www.w3.org/2000/svg" xmlns:xlink="http://www.w3.org/1999/xlink">
    <title>RambleGate_1 Copy 4</title>
    <defs>
        <linearGradient x1="50%" y1="0%" x2="50%" y2="100%" id="linearGradient-1">
            <stop stop-color="#FF9900" offset="0%"></stop>
            <stop stop-color="#FF0000" offset="58.6212111%"></stop>
            <stop stop-color="#9620D4" offset="74.6262664%"></stop>
            <stop stop-color="#EFFC00" offset="25.2710395%"></stop>
            <stop stop-color="#00C2FF" offset="91.7285419%"></stop>
            <stop stop-color="#B1FD00" offset="100%"></stop>
        </linearGradient>
        <filter x="-8.0%" y="-14.2%" width="115.9%" height="128.3%" filterUnits="objectBoundingBox" id="filter-2">
            <feGaussianBlur stdDeviation="34" in="SourceGraphic"></feGaussianBlur>
        </filter>
        <linearGradient x1="50%" y1="0%" x2="50%" y2="100%" id="linearGradient-3">
            <stop stop-color="#500000" offset="0%"></stop>
            <stop stop-color="#000000" stop-opacity="0.5" offset="100%"></stop>
        </linearGradient>
    </defs>
    <g id="RambleGate_1-Copy-4" stroke="none" stroke-width="1" fill="none" fill-rule="evenodd">
        <rect id="Rectangle" fill="url(#linearGradient-1)" filter="url(#filter-2)" x="0" y="0" width="1280" height="720"></rect>
        <g id="center" opacity="0.6" transform="translate(430.000000, 244.000000)" stroke="#FFFFFF">
            <rect id="Rectangle" x="0" y="0" width="420" height="240"></rect>
            <line x1="106" y1="0" x2="106" y2="240" id="Path-20"></line>
            <line x1="210" y1="0" x2="210" y2="240" id="Path-20-Copy"></line>
            <line x1="314" y1="0" x2="314" y2="240" id="Path-20-Copy-2"></line>
            <line x1="0" y1="60" x2="420" y2="60" id="Path-21-Copy"></line>
            <line x1="0" y1="120" x2="420" y2="120" id="Path-21"></line>
            <line x1="0" y1="180" x2="420" y2="180" id="Path-21-Copy-2"></line>
        </g>
        <g id="floor" opacity="0.6" transform="translate(0.000000, 484.000000)" stroke="#FFFFFF">
            <path d="M1278.04978,0.5 L1.95022428,0.5 L430.12819,235.5 L849.87181,235.5 L1278.04978,0.5 Z" id="Rectangle-Copy-4" transform="translate(640.000000, 118.000000) scale(1, -1) translate(-640.000000, -118.000000) "></path>
            <line x1="536" y1="236" x2="316" y2="0" id="Path-19-Copy-4" transform="translate(426.000000, 118.000000) scale(1, -1) translate(-426.000000, -118.000000) "></line>
            <line x1="640" y1="236" x2="640" y2="0" id="Path-19-Copy-3" transform="translate(640.000000, 118.000000) scale(1, -1) translate(-640.000000, -118.000000) "></line>
            <line x1="744" y1="236" x2="964" y2="0" id="Path-19-Copy-5" transform="translate(854.000000, 118.000000) scale(1, -1) translate(-854.000000, -118.000000) "></line>
            <line x1="215" y1="118" x2="1065" y2="118" id="Path-22-Copy"></line>
            <line x1="954" y1="57" x2="326" y2="57" id="Path-23"></line>
            <line x1="388" y1="22" x2="891" y2="22" id="Path-24-Copy"></line>
        </g>
        <g id="ceiling" opacity="0.6" stroke="#FFFFFF">
            <path d="M849.868023,0.5 L430.131977,0.5 L1.89427191,243.5 L1278.10573,243.5 L849.868023,0.5 Z" id="Rectangle-Copy-3" transform="translate(640.000000, 122.000000) scale(1, -1) translate(-640.000000, -122.000000) "></path>
            <line x1="640" y1="244" x2="640" y2="0" id="Path-19"></line>
            <line x1="536" y1="244" x2="316" y2="0" id="Path-19-Copy"></line>
            <line x1="744" y1="244" x2="964" y2="0" id="Path-19-Copy-2"></line>
            <line x1="215" y1="122" x2="1065" y2="122" id="Path-22"></line>
            <line x1="954" y1="184" x2="326" y2="184" id="Path-23-Copy"></line>
            <line x1="388" y1="221" x2="890" y2="221" id="Path-24" fill="url(#linearGradient-3)"></line>
        </g>
        <g id="right" opacity="0.6" transform="translate(850.000000, 0.000000)" stroke="#FFFFFF">
            <path d="M0.5,0.858610108 L0.5,719.155226 L429.5,483.704063 L429.5,244.291168 L0.5,0.858610108 Z" id="Rectangle-Copy-2" transform="translate(215.000000, 360.000000) scale(-1, 1) translate(-215.000000, -360.000000) "></path>
            <line x1="0" y1="304" x2="430" y2="184" id="Path-21-Copy-6"></line>
            <line x1="0" y1="364" x2="430" y2="364" id="Path-21-Copy-7"></line>
            <line x1="0" y1="424" x2="430" y2="544" id="Path-21-Copy-8"></line>
            <line x1="215" y1="122" x2="215" y2="602" id="Path-22-Copy-2"></line>
            <line x1="104" y1="541" x2="104" y2="184" id="Path-23-Copy-2"></line>
            <line x1="41" y1="221" x2="41" y2="506" id="Path-24-Copy-2"></line>
        </g>
        <g id="left" opacity="0.6" stroke="#FFFFFF">
            <path d="M429.5,0.858610108 L0.5,244.291168 L0.5,483.704063 L429.5,719.155226 L429.5,0.858610108 Z" id="Rectangle-Copy" transform="translate(215.000000, 360.000000) scale(-1, 1) translate(-215.000000, -360.000000) "></path>
            <line x1="0" y1="304" x2="430" y2="184" id="Path-21-Copy-5" transform="translate(215.000000, 244.000000) scale(-1, 1) translate(-215.000000, -244.000000) "></line>
            <line x1="0" y1="364" x2="430" y2="364" id="Path-21-Copy-4" transform="translate(215.000000, 364.000000) scale(-1, 1) translate(-215.000000, -364.000000) "></line>
            <line x1="0" y1="424" x2="430" y2="544" id="Path-21-Copy-3" transform="translate(215.000000, 484.000000) scale(-1, 1) translate(-215.000000, -484.000000) "></line>
            <line x1="215" y1="122" x2="215" y2="602" id="Path-22-Copy-3"></line>
            <line x1="326" y1="541" x2="326" y2="184" id="Path-23-Copy-3"></line>
            <line x1="393" y1="221" x2="393" y2="506" id="Path-24-Copy-3"></line>
        </g>
    </g>
</svg>